<?xml version="1.0" standalone="no"?>
<!DOCTYPE svg PUBLIC "-//W3C//DTD SVG 20010904//EN"
 "http://www.w3.org/TR/2001/REC-SVG-20010904/DTD/svg10.dtd">
<svg version="1.0" xmlns="http://www.w3.org/2000/svg"
 width="512.000000pt" height="512.000000pt" viewBox="0 0 512.000000 512.000000"
 preserveAspectRatio="xMidYMid meet">

<g transform="translate(0.000000,512.000000) scale(0.100000,-0.100000)"
fill="#000000" stroke="none">
<path d="M845 4726 c-62 -27 -101 -102 -90 -174 8 -54 73 -125 124 -135 19 -4
227 -7 464 -7 l431 0 -45 -32 c-142 -101 -237 -179 -329 -273 l-105 -105 -570
0 c-354 0 -584 -4 -607 -10 -21 -6 -51 -27 -71 -50 -57 -63 -61 -141 -11 -207
49 -65 35 -63 549 -63 257 0 465 -3 463 -7 -1 -5 -33 -69 -69 -143 -215 -435
-276 -903 -183 -1383 49 -251 165 -543 298 -747 l55 -85 -257 -5 c-234 -5
-260 -7 -291 -25 -53 -31 -74 -67 -79 -132 -3 -48 0 -64 20 -92 12 -19 36 -44
51 -55 28 -20 40 -21 440 -24 l411 -3 46 -43 c49 -46 244 -194 270 -205 8 -3
-354 -8 -805 -11 -754 -5 -823 -6 -852 -22 -49 -27 -76 -74 -81 -137 -4 -65
19 -109 77 -148 l34 -23 1486 0 c1588 0 1563 0 1796 50 385 84 760 289 1046
573 194 192 315 359 434 598 299 604 299 1314 0 1918 -288 579 -801 998 -1415
1155 -260 66 -258 66 -1493 66 -900 -1 -1118 -3 -1142 -14z m2327 -332 c551
-70 1043 -387 1338 -862 184 -298 272 -612 272 -972 0 -240 -30 -416 -109
-635 -181 -502 -600 -922 -1103 -1103 -353 -127 -737 -146 -1098 -53 -581 150
-1061 584 -1272 1151 -128 347 -148 755 -53 1110 175 656 686 1160 1341 1324
84 21 160 34 287 49 81 10 286 5 397 -9z"/>
<path d="M2709 3895 c-487 -82 -899 -438 -1058 -915 -47 -140 -65 -254 -65
-425 0 -369 133 -685 398 -950 210 -209 451 -334 735 -381 138 -22 397 -15
517 15 172 43 322 109 464 204 100 67 293 262 359 362 244 371 296 809 146
1227 -157 439 -579 787 -1045 863 -114 18 -343 18 -451 0z m61 -549 l0 -224
-87 -42 c-68 -33 -102 -58 -159 -115 l-72 -73 -198 64 c-110 35 -205 66 -212
69 -11 4 -7 16 14 53 102 176 293 344 479 421 62 26 192 66 228 70 4 1 7 -100
7 -223z m475 186 c173 -53 326 -152 449 -291 73 -81 151 -200 140 -211 -5 -4
-101 -38 -214 -74 l-204 -65 -49 55 c-56 63 -143 125 -214 153 l-48 19 -3 226
-2 226 32 -7 c18 -3 69 -17 113 -31z m-210 -746 c95 -45 147 -125 147 -227 0
-72 -27 -133 -79 -180 -109 -98 -262 -88 -357 23 -77 89 -77 227 0 316 76 89
189 116 289 68z m-893 -143 l207 -66 6 -46 c15 -123 40 -198 100 -297 l18 -30
-123 -170 c-67 -93 -126 -173 -131 -178 -20 -22 -125 111 -193 243 -56 109
-92 232 -105 361 -10 95 -5 250 8 250 3 0 99 -30 213 -67z m1814 1 c14 -138
-15 -325 -75 -470 -38 -92 -121 -226 -184 -296 l-34 -37 -124 171 c-68 94
-127 177 -131 183 -5 8 7 38 27 71 43 70 70 155 79 245 l7 66 202 66 c111 36
207 66 214 66 7 1 14 -25 19 -65z m-1136 -653 c64 -15 175 -13 245 3 33 8 62
13 66 10 9 -5 259 -351 259 -357 0 -3 -37 -20 -82 -37 -240 -93 -506 -93 -745
0 -46 17 -83 33 -83 36 0 2 59 85 131 184 97 133 136 179 148 176 9 -3 36 -10
61 -15z"/>
</g>
</svg>
